REM DIRINDEX 1\2\6,1\2\7,1\2\8,1\2\9,1\3\10,1\3\11,1\4\12,1\4\13,1\4\14,1\5\15,1\5\16,1\5\17
REM DIRNAME cjc029,folder01,folder02,folder03,folder04,folder05,folder06,folder07,folder08,folder09,folder10,folder11,folder12,folder13,folder14,folder15,folder16
TITLE ""
FILE "1400_3_sec06_0501_0516.mp3" MP3
  TRACK 01 AUDIO
    TITLE "0:"
    INDEX 01 00:00:00
  TRACK 02 AUDIO
    TITLE "15:cjc029_5432"
    INDEX 01 00:00:15
  TRACK 03 AUDIO
    TITLE "0:"
    INDEX 01 00:02:02
  TRACK 04 AUDIO
    TITLE "17:cjc029_5433"
    INDEX 01 00:03:10
  TRACK 05 AUDIO
    TITLE "0:"
    INDEX 01 00:04:35
  TRACK 06 AUDIO
    TITLE "16:cjc029_5434"
    INDEX 01 00:04:40
  TRACK 07 AUDIO
    TITLE "0:"
    INDEX 01 00:05:61
  TRACK 08 AUDIO
    TITLE "17:cjc029_5435"
    INDEX 01 00:06:45
  TRACK 09 AUDIO
    TITLE "0:"
    INDEX 01 00:08:24
  TRACK 10 AUDIO
    TITLE "16:cjc029_5436"
    INDEX 01 00:08:30
  TRACK 11 AUDIO
    TITLE "0:"
    INDEX 01 00:09:42
  TRACK 12 AUDIO
    TITLE "17:cjc029_5437"
    INDEX 01 00:10:25
  TRACK 13 AUDIO
    TITLE "0:"
    INDEX 01 00:11:56
  TRACK 14 AUDIO
    TITLE "16:cjc029_5438"
    INDEX 01 00:11:64
  TRACK 15 AUDIO
    TITLE "0:"
    INDEX 01 00:12:69
  TRACK 16 AUDIO
    TITLE "17:cjc029_5439"
    INDEX 01 00:13:53
  TRACK 17 AUDIO
    TITLE "0:"
    INDEX 01 00:15:09
  TRACK 18 AUDIO
    TITLE "16:cjc029_5440"
    INDEX 01 00:15:13
  TRACK 19 AUDIO
    TITLE "0:"
    INDEX 01 00:16:48
  TRACK 20 AUDIO
    TITLE "17:cjc029_5441"
    INDEX 01 00:17:31
  TRACK 21 AUDIO
    TITLE "0:"
    INDEX 01 00:18:56
  TRACK 22 AUDIO
    TITLE "16:cjc029_5442"
    INDEX 01 00:18:60
  TRACK 23 AUDIO
    TITLE "0:"
    INDEX 01 00:20:06
  TRACK 24 AUDIO
    TITLE "17:cjc029_5443"
    INDEX 01 00:20:65
  TRACK 25 AUDIO
    TITLE "0:"
    INDEX 01 00:22:44
  TRACK 26 AUDIO
    TITLE "16:cjc029_5444"
    INDEX 01 00:22:50
  TRACK 27 AUDIO
    TITLE "0:"
    INDEX 01 00:23:57
  TRACK 28 AUDIO
    TITLE "17:cjc029_5445"
    INDEX 01 00:24:41
  TRACK 29 AUDIO
    TITLE "0:"
    INDEX 01 00:25:56
  TRACK 30 AUDIO
    TITLE "16:cjc029_5446"
    INDEX 01 00:25:64
  TRACK 31 AUDIO
    TITLE "0:"
    INDEX 01 00:27:14
  TRACK 32 AUDIO
    TITLE "17:cjc029_5447"
    INDEX 01 00:28:04
  TRACK 33 AUDIO
    TITLE "0:"
    INDEX 01 00:29:33
  TRACK 34 AUDIO
    TITLE "16:cjc029_5448"
    INDEX 01 00:29:36
  TRACK 35 AUDIO
    TITLE "0:"
    INDEX 01 00:30:50
  TRACK 36 AUDIO
    TITLE "17:cjc029_5449"
    INDEX 01 00:31:37
  TRACK 37 AUDIO
    TITLE "0:"
    INDEX 01 00:32:62
  TRACK 38 AUDIO
    TITLE "16:cjc029_5450"
    INDEX 01 00:32:68
  TRACK 39 AUDIO
    TITLE "0:"
    INDEX 01 00:34:20
  TRACK 40 AUDIO
    TITLE "17:cjc029_5451"
    INDEX 01 00:35:10
  TRACK 41 AUDIO
    TITLE "0:"
    INDEX 01 00:36:33
  TRACK 42 AUDIO
    TITLE "16:cjc029_5452"
    INDEX 01 00:36:38
  TRACK 43 AUDIO
    TITLE "0:"
    INDEX 01 00:37:61
  TRACK 44 AUDIO
    TITLE "17:cjc029_5453"
    INDEX 01 00:38:49
  TRACK 45 AUDIO
    TITLE "0:"
    INDEX 01 00:41:57
  TRACK 46 AUDIO
    TITLE "16:cjc029_5454"
    INDEX 01 00:41:63
  TRACK 47 AUDIO
    TITLE "0:"
    INDEX 01 00:43:09
  TRACK 48 AUDIO
    TITLE "17:cjc029_5455"
    INDEX 01 00:43:68
  TRACK 49 AUDIO
    TITLE "0:"
    INDEX 01 00:45:26
  TRACK 50 AUDIO
    TITLE "16:cjc029_5456"
    INDEX 01 00:45:33
  TRACK 51 AUDIO
    TITLE "0:"
    INDEX 01 00:46:62
  TRACK 52 AUDIO
    TITLE "17:cjc029_5457"
    INDEX 01 00:47:48
  TRACK 53 AUDIO
    TITLE "0:"
    INDEX 01 00:48:69
  TRACK 54 AUDIO
    TITLE "16:cjc029_5458"
    INDEX 01 00:49:02
  TRACK 55 AUDIO
    TITLE "0:"
    INDEX 01 00:50:17
  TRACK 56 AUDIO
    TITLE "17:cjc029_5459"
    INDEX 01 00:51:03
  TRACK 57 AUDIO
    TITLE "0:"
    INDEX 01 00:52:06
  TRACK 58 AUDIO
    TITLE "16:cjc029_5460"
    INDEX 01 00:52:08
  TRACK 59 AUDIO
    TITLE "0:"
    INDEX 01 00:53:27
  TRACK 60 AUDIO
    TITLE "17:cjc029_5461"
    INDEX 01 00:54:13
  TRACK 61 AUDIO
    TITLE "0:"
    INDEX 01 00:55:38
  TRACK 62 AUDIO
    TITLE "16:cjc029_5462"
    INDEX 01 00:55:44
  TRACK 63 AUDIO
    TITLE "0:"
    INDEX 01 00:57:05
  TRACK 64 AUDIO
    TITLE "17:cjc029_5463"
    INDEX 01 00:57:68
  TRACK 65 AUDIO
    TITLE "0:"
    INDEX 01 00:59:32
  TRACK 66 AUDIO
    TITLE "16:cjc029_5464"
    INDEX 01 00:59:39
  TRACK 67 AUDIO
    TITLE "0:"
    INDEX 01 01:00:62
